<?xml version="1.0" encoding="UTF-8" standalone="no" ?>
<!DOCTYPE svg PUBLIC "-//W3C//DTD SVG 1.1//EN" "http://www.w3.org/Graphics/SVG/1.1/DTD/svg11.dtd">
<svg xmlns="http://www.w3.org/2000/svg" xmlns:xlink="http://www.w3.org/1999/xlink" version="1.1" width="1080" height="1080" viewBox="0 0 1080 1080" xml:space="preserve">
<desc>Created with Fabric.js 5.2.4</desc>
<defs>
</defs>
<g transform="matrix(1 0 0 1 540 540)" id="722b5f29-eb3b-41f7-92f9-1c62c9ceee96"  >
<rect style="stroke: none; stroke-width: 1; stroke-dasharray: none; stroke-linecap: butt; stroke-dashoffset: 0; stroke-linejoin: miter; stroke-miterlimit: 4; fill: rgb(255,255,255); fill-rule: nonzero; opacity: 1; visibility: hidden;" vector-effect="non-scaling-stroke"  x="-540" y="-540" rx="0" ry="0" width="1080" height="1080" />
</g>
<g transform="matrix(1 0 0 1 540 540)" id="4d495598-64f3-4f32-995b-3d1e5ad23209"  >
</g>
<g transform="matrix(1 0 0 1 540 540)"  >
<g style="" vector-effect="non-scaling-stroke"   >
		<g transform="matrix(0.13 0 0 -0.13 2.67 -483.88)"  >
<path style="stroke: none; stroke-width: 1; stroke-dasharray: none; stroke-linecap: butt; stroke-dashoffset: 0; stroke-linejoin: miter; stroke-miterlimit: 4; fill: rgb(255,255,255); fill-rule: nonzero; opacity: 1;" vector-effect="non-scaling-stroke"  transform=" translate(-4120, -7630)" d="M 3780 7895 C 3780 7865 3783 7860 3803 7860 C 3850 7860 3851 7857 3848 7629 L 3845 7415 L 3813 7405 C 3784 7397 3780 7391 3780 7363 L 3780 7330 L 3895 7330 L 4010 7330 L 4010 7363 C 4010 7391 4006 7397 3978 7405 L 3945 7415 L 3943 7595 L 3940 7775 L 3988 7693 C 4014 7647 4070 7547 4113 7470 L 4191 7330 L 4285 7330 L 4379 7330 L 4382 7585 C 4385 7860 4385 7859 4438 7860 C 4457 7860 4460 7865 4460 7895 L 4460 7930 L 4345 7930 L 4230 7930 L 4230 7895 C 4230 7865 4233 7860 4253 7860 C 4297 7860 4300 7846 4300 7661 C 4299 7509 4297 7487 4286 7503 C 4278 7513 4221 7613 4158 7726 L 4045 7930 L 3913 7930 L 3780 7930 L 3780 7895 z" stroke-linecap="round" />
</g>
		<g transform="matrix(0.13 0 0 -0.13 -2.67 -13.92)"  >
<path style="stroke: none; stroke-width: 1; stroke-dasharray: none; stroke-linecap: butt; stroke-dashoffset: 0; stroke-linejoin: miter; stroke-miterlimit: 4; fill: rgb(255,255,255); fill-rule: nonzero; opacity: 1;" vector-effect="non-scaling-stroke"  transform=" translate(-4079.95, -4105.27)" d="M 4046 7243 C 4043 7227 4036 7172 4030 7120 C 4024 7068 4017 7015 4015 7004 C 4013 6992 4002 6890 3990 6779 C 3972 6609 3965 6572 3950 6559 C 3937 6548 3901 6540 3838 6535 C 3600 6517 3325 6445 3085 6339 C 2969 6287 2785 6186 2774 6169 C 2771 6163 2774 6151 2782 6143 C 2795 6131 2803 6132 2846 6158 C 3131 6325 3423 6428 3741 6475 C 3854 6491 3964 6495 3957 6482 C 3954 6478 3951 6455 3949 6430 C 3945 6359 3939 6354 3863 6346 C 3547 6315 3258 6225 2983 6072 C 2906 6030 2901 6025 2916 6009 C 2930 5993 2939 5996 3053 6055 C 3231 6148 3400 6211 3603 6259 C 3669 6275 3846 6300 3894 6300 L 3933 6300 L 3926 6228 C 3923 6188 3918 6144 3916 6130 C 3914 6116 3909 6078 3905 6045 C 3891 5914 3898 5924 3812 5910 C 3539 5868 3297 5776 3079 5632 C 2654 5352 2387 4951 2284 4440 C 2269 4366 2253 4301 2249 4296 C 2243 4289 2114 4271 1943 4254 L 1880 4248 L 1880 4289 C 1880 4377 1915 4564 1961 4726 C 1999 4859 2047 4978 2126 5130 C 2190 5254 2190 5255 2170 5274 C 2151 5293 2150 5293 2077 5139 C 2036 5054 1987 4944 1967 4894 C 1916 4768 1864 4556 1842 4390 C 1832 4313 1820 4247 1816 4243 C 1813 4239 1782 4234 1748 4232 L 1687 4227 L 1693 4321 C 1715 4633 1832 5004 2000 5295 C 2027 5343 2050 5385 2050 5388 C 2050 5391 2042 5402 2033 5412 C 2017 5430 2014 5426 1967 5343 C 1776 5002 1668 4664 1644 4335 C 1640 4286 1634 4238 1629 4229 C 1623 4218 1600 4211 1548 4206 C 1467 4199 1004 4143 952 4134 C 927 4130 920 4124 920 4106 C 920 4077 898 4081 1300 4034 C 1479 4013 1628 3992 1631 3988 C 1634 3983 1638 3954 1639 3922 C 1645 3761 1699 3502 1770 3295 C 1837 3102 2016 2754 2044 2763 C 2073 2773 2070 2798 2031 2862 C 1940 3012 1853 3202 1797 3375 C 1742 3540 1690 3818 1690 3940 L 1690 3989 L 1727 3984 C 1748 3981 1779 3977 1796 3974 L 1826 3970 L 1838 3858 C 1871 3561 1961 3277 2101 3024 C 2174 2894 2176 2891 2196 2911 C 2210 2925 2208 2932 2180 2980 C 2079 3151 1995 3354 1945 3543 C 1911 3676 1880 3856 1880 3925 L 1880 3963 L 1945 3957 C 2037 3949 2211 3929 2237 3924 C 2255 3921 2260 3909 2270 3848 C 2276 3808 2297 3717 2315 3645 C 2433 3191 2678 2844 3060 2594 C 3159 2529 3329 2440 3440 2396 C 3545 2353 3683 2319 3844 2295 C 3866 2292 3886 2288 3888 2286 C 3892 2281 3930 1967 3930 1933 C 3930 1913 3925 1910 3887 1910 C 3826 1910 3580 1955 3476 1985 C 3340 2024 3207 2077 3078 2141 C 2975 2193 2960 2198 2949 2184 C 2931 2163 2945 2153 3095 2080 C 3305 1977 3574 1899 3816 1870 C 3871 1863 3922 1855 3929 1850 C 3936 1846 3945 1815 3949 1781 L 3956 1720 L 3915 1720 C 3746 1720 3409 1795 3193 1881 C 3108 1914 2952 1990 2876 2035 C 2831 2061 2827 2062 2812 2046 C 2796 2030 2797 2028 2820 2009 C 2859 1978 3115 1855 3221 1816 C 3423 1742 3659 1688 3848 1674 C 3899 1670 3946 1662 3954 1656 C 3962 1649 3973 1590 3984 1490 C 4027 1092 4046 959 4061 949 C 4086 933 4098 939 4104 973 C 4109 1002 4144 1297 4172 1549 C 4182 1638 4186 1653 4204 1660 C 4216 1664 4279 1673 4345 1680 C 4660 1711 4999 1820 5282 1982 C 5342 2016 5389 2048 5387 2054 C 5377 2084 5351 2082 5294 2048 C 5148 1960 4924 1862 4750 1810 C 4618 1771 4403 1731 4282 1723 L 4190 1717 L 4196 1766 C 4208 1853 4211 1857 4282 1865 C 4582 1897 4824 1966 5075 2091 C 5247 2177 5259 2185 5239 2205 C 5226 2218 5206 2210 5070 2142 C 4911 2062 4732 1996 4579 1960 C 4483 1938 4304 1910 4250 1910 L 4214 1910 L 4235 2090 C 4247 2189 4261 2275 4266 2280 C 4272 2286 4317 2297 4366 2305 C 4612 2345 4810 2419 5030 2556 C 5495 2843 5778 3269 5874 3824 C 5883 3873 5892 3915 5895 3918 C 5901 3924 6188 3959 6239 3959 L 6273 3960 L 6266 3878 C 6246 3643 6160 3353 6040 3114 C 5971 2977 5964 2960 5978 2946 C 5992 2932 5995 2933 6010 2958 C 6173 3226 6285 3571 6316 3897 C 6323 3978 6316 3972 6423 3984 L 6460 3988 L 6460 3941 C 6460 3876 6435 3703 6410 3585 C 6364 3372 6261 3110 6144 2907 C 6103 2836 6100 2826 6113 2813 C 6121 2804 6133 2801 6139 2804 C 6156 2815 6256 2997 6306 3110 C 6418 3362 6510 3735 6510 3936 C 6510 3959 6516 3982 6523 3988 C 6529 3993 6681 4014 6860 4035 C 7039 4055 7195 4074 7207 4077 C 7228 4082 7248 4115 7237 4127 C 7234 4129 7160 4140 7073 4150 C 6986 4160 6834 4178 6735 4190 C 6636 4201 6545 4215 6533 4220 C 6514 4228 6510 4237 6510 4277 C 6509 4416 6452 4703 6389 4885 C 6330 5058 6232 5269 6168 5361 C 6154 5382 6150 5383 6136 5370 C 6122 5357 6129 5337 6208 5180 C 6335 4927 6407 4698 6445 4425 C 6453 4370 6460 4301 6460 4273 C 6460 4221 6460 4221 6433 4225 C 6417 4227 6388 4232 6368 4235 C 6347 4238 6329 4244 6326 4248 C 6324 4252 6316 4303 6310 4360 C 6285 4591 6205 4867 6102 5082 C 6069 5149 6035 5214 6027 5225 C 6013 5243 6010 5243 5996 5230 C 5983 5217 5989 5200 6045 5088 C 6149 4877 6206 4702 6246 4472 C 6275 4296 6277 4250 6253 4250 C 6222 4250 5899 4288 5895 4291 C 5893 4293 5884 4340 5875 4395 C 5740 5191 5140 5781 4333 5910 C 4263 5921 4260 5923 4256 5953 C 4244 6028 4220 6239 4220 6269 L 4220 6303 L 4300 6297 C 4421 6287 4620 6244 4770 6194 C 4907 6149 5115 6054 5203 5998 L 5251 5967 L 5272 5988 L 5293 6008 L 5124 6093 C 5031 6139 4913 6194 4861 6214 C 4728 6267 4523 6317 4363 6337 C 4281 6347 4222 6359 4214 6368 C 4206 6375 4200 6399 4200 6420 C 4200 6441 4197 6465 4194 6474 C 4175 6523 4596 6455 4848 6369 C 4976 6325 5205 6218 5315 6151 C 5382 6110 5407 6106 5417 6136 C 5421 6147 5271 6240 5165 6293 C 4917 6416 4614 6504 4349 6530 C 4286 6536 4224 6545 4210 6548 L 4185 6555 L 4143 6910 C 4120 7105 4101 7266 4101 7268 C 4100 7269 4089 7270 4076 7270 C 4057 7270 4050 7263 4046 7243 z M 4078 5653 C 4079 4812 4080 4123 4080 4120 C 4080 4115 4186 4277 4291 4444 C 4353 4540 4483 4670 4635 4785 C 4707 4839 4844 4946 4940 5023 C 5036 5100 5122 5168 5130 5173 C 5138 5179 4913 4951 4630 4667 C 4347 4383 4119 4148 4122 4145 C 4125 4142 4217 4196 4325 4265 C 4433 4335 4533 4396 4547 4401 C 4565 4407 4615 4406 4704 4395 C 4893 4373 5087 4351 5145 4345 C 5173 4342 5249 4333 5315 4325 C 5529 4299 5862 4261 5970 4250 C 6101 4236 6088 4238 6495 4190 C 6682 4167 6905 4142 6990 4132 C 7143 4115 7121 4115 5618 4112 C 4237 4110 4090 4108 4090 4094 C 4090 4086 4136 4008 4192 3922 C 4328 3711 4365 3649 4372 3622 C 4377 3604 4354 3360 4325 3125 C 4318 3071 4281 2756 4275 2700 C 4272 2675 4261 2576 4250 2480 C 4239 2384 4218 2206 4205 2085 C 4191 1964 4166 1750 4150 1610 C 4133 1470 4118 1337 4115 1315 C 4113 1293 4106 1226 4099 1165 C 4093 1105 4084 1051 4080 1046 C 4075 1042 4072 1722 4073 2558 L 4075 4078 L 4048 4075 C 4033 4073 3929 4013 3818 3942 C 3706 3871 3606 3810 3594 3806 C 3583 3803 3461 3813 3324 3829 C 3187 3846 3032 3864 2980 3869 C 2928 3875 2750 3896 2585 3915 C 2420 3934 2085 3973 1840 4000 C 1595 4027 1377 4052 1355 4055 C 1263 4066 1015 4100 1005 4102 C 1000 4104 1685 4107 2528 4110 L 4060 4115 L 3828 4265 L 3597 4415 L 3298 4790 C 3134 4996 2994 5174 2988 5185 C 2983 5196 3217 4967 3510 4675 C 3803 4384 4040 4152 4038 4160 C 4035 4168 3978 4260 3910 4364 C 3843 4467 3784 4564 3779 4579 C 3773 4597 3778 4674 3794 4820 C 3808 4938 3835 5175 3855 5345 C 3874 5516 3892 5671 3895 5690 C 3897 5709 3902 5748 3905 5775 C 3909 5821 3943 6109 3955 6205 C 3957 6227 3969 6326 3980 6425 C 3991 6524 4009 6682 4020 6775 C 4031 6869 4045 6998 4052 7063 C 4059 7127 4067 7180 4070 7180 C 4074 7180 4077 6493 4078 5653 z M 3880 5840 C 3880 5816 3859 5805 3795 5795 C 3636 5773 3378 5684 3230 5601 C 2804 5363 2476 4905 2391 4432 C 2380 4370 2368 4315 2365 4309 C 2361 4304 2350 4300 2338 4300 C 2319 4300 2318 4304 2325 4358 C 2336 4452 2396 4668 2439 4774 C 2532 5001 2667 5198 2852 5375 C 3117 5629 3409 5780 3763 5845 C 3868 5864 3880 5863 3880 5840 z M 4407 5839 C 4645 5793 4905 5684 5089 5552 C 5462 5285 5716 4896 5805 4454 C 5836 4303 5836 4298 5808 4302 C 5789 4304 5783 4315 5772 4365 C 5713 4628 5676 4741 5594 4904 C 5373 5342 4874 5714 4408 5786 C 4288 5805 4276 5810 4272 5839 C 4268 5865 4271 5865 4407 5839 z M 3864 5688 C 3849 5531 3831 5418 3820 5405 C 3813 5397 3800 5390 3792 5390 C 3758 5390 3600 5336 3514 5295 C 3418 5249 3258 5147 3226 5111 C 3215 5099 3200 5090 3192 5090 C 3181 5090 3057 5183 2968 5257 C 2955 5269 2948 5269 2931 5258 C 2919 5251 2910 5241 2910 5237 C 2910 5232 2951 5177 3000 5114 C 3050 5052 3090 4996 3090 4989 C 3090 4983 3073 4957 3051 4931 C 2938 4795 2836 4592 2800 4427 C 2793 4396 2781 4365 2773 4359 C 2764 4351 2514 4315 2433 4310 C 2415 4309 2461 4522 2507 4654 C 2596 4912 2724 5106 2942 5316 C 3152 5518 3409 5656 3705 5725 C 3760 5738 3820 5749 3838 5749 L 3871 5750 L 3864 5688 z M 4427 5729 C 4675 5675 4908 5564 5116 5399 C 5201 5331 5365 5158 5432 5064 C 5558 4888 5660 4651 5701 4439 C 5727 4302 5729 4308 5673 4315 C 5467 4339 5384 4352 5374 4363 C 5368 4369 5353 4413 5341 4459 C 5297 4624 5211 4791 5101 4928 L 5050 4990 L 5146 5111 L 5242 5232 L 5222 5253 L 5202 5273 L 5080 5177 L 4958 5081 L 4895 5133 C 4767 5238 4593 5326 4419 5374 C 4369 5388 4325 5401 4323 5404 C 4318 5408 4280 5701 4280 5733 C 4280 5756 4307 5755 4427 5729 z M 3820 5322 C 3820 5283 3800 5269 3690 5230 C 3565 5187 3515 5161 3393 5079 C 3337 5041 3287 5010 3282 5010 C 3277 5010 3263 5021 3251 5034 L 3229 5058 L 3272 5092 C 3398 5193 3562 5280 3710 5324 C 3818 5356 3820 5356 3820 5322 z M 4463 5316 C 4615 5266 4763 5187 4878 5092 C 4912 5064 4918 5055 4908 5043 C 4876 5004 4863 5007 4777 5069 C 4677 5142 4543 5209 4430 5245 C 4339 5273 4330 5280 4330 5323 C 4330 5358 4336 5357 4463 5316 z M 3807 5193 C 3803 5172 3789 5052 3775 4925 C 3742 4638 3745 4655 3734 4657 C 3723 4659 3321 4973 3321 4980 C 3319 4992 3475 5097 3547 5134 C 3622 5172 3770 5228 3799 5230 C 3809 5230 3811 5221 3807 5193 z M 4438 5204 C 4573 5159 4804 5025 4817 4984 C 4822 4970 4418 4648 4409 4658 C 4406 4662 4398 4716 4391 4778 C 4385 4840 4377 4907 4375 4928 C 4363 5019 4340 5215 4340 5222 C 4340 5235 4357 5232 4438 5204 z M 3170 4897 C 3170 4892 3143 4852 3111 4807 C 3028 4692 2987 4612 2944 4485 C 2924 4425 2903 4372 2896 4368 C 2890 4364 2873 4360 2858 4360 C 2822 4360 2822 4369 2864 4495 C 2917 4652 2989 4786 3088 4908 L 3122 4951 L 3146 4929 C 3159 4917 3170 4902 3170 4897 z M 5095 4863 C 5197 4726 5285 4537 5315 4393 C 5321 4362 5320 4360 5292 4360 C 5253 4360 5243 4374 5208 4477 C 5169 4594 5110 4708 5039 4807 C 5007 4852 4980 4891 4980 4895 C 4980 4905 5014 4949 5023 4950 C 5027 4950 5059 4911 5095 4863 z M 3363 4657 C 3450 4546 3521 4451 3521 4445 C 3521 4437 3379 4417 3085 4386 C 3052 4383 3008 4377 2988 4374 C 2966 4371 2950 4372 2950 4378 C 2950 4403 3005 4550 3041 4623 C 3080 4701 3187 4861 3199 4860 C 3202 4859 3276 4768 3363 4657 z M 5035 4750 C 5095 4659 5143 4559 5174 4461 C 5189 4415 5199 4376 5197 4374 C 5192 4368 4659 4430 4637 4438 C 4623 4444 4647 4480 4782 4651 L 4945 4858 L 4968 4836 C 4981 4825 5011 4786 5035 4750 z M 4267 3982 C 4568 3790 4531 3823 4768 3525 C 5122 3081 5154 3040 5149 3040 C 5147 3040 4913 3272 4630 3555 C 4347 3838 4118 4070 4122 4070 C 4127 4070 4192 4030 4267 3982 z M 4023 4027 C 4019 4020 3959 3927 3891 3821 L 3767 3629 L 3576 3477 C 3313 3267 3114 3110 3076 3081 C 3059 3068 3265 3278 3535 3548 C 3804 3819 4026 4040 4028 4040 C 4030 4040 4027 4034 4023 4027 z M 2373 3865 C 2469 3422 2586 3180 2825 2931 C 3098 2647 3429 2472 3808 2410 C 3875 2399 3880 2396 3880 2373 C 3880 2350 3878 2349 3833 2355 C 3429 2411 3082 2591 2794 2893 C 2548 3151 2397 3450 2335 3801 C 2316 3910 2316 3912 2342 3908 C 2359 3906 2366 3895 2373 3865 z M 5830 3893 C 5830 3851 5778 3632 5745 3534 C 5537 2913 4972 2446 4317 2355 C 4270 2349 4269 2349 4272 2372 C 4274 2391 4284 2397 4335 2408 C 4747 2497 5004 2623 5253 2860 C 5513 3106 5697 3440 5756 3772 C 5765 3823 5776 3875 5781 3888 C 5791 3915 5830 3919 5830 3893 z M 2613 3880 C 2761 3861 2790 3852 2790 3822 C 2790 3813 2802 3768 2816 3721 C 2861 3572 2957 3392 3051 3279 C 3073 3253 3090 3227 3090 3221 C 3090 3215 3049 3158 2999 3095 C 2910 2982 2899 2957 2934 2944 C 2943 2941 2997 2977 3070 3034 L 3191 3130 L 3255 3077 C 3382 2972 3562 2881 3729 2837 C 3830 2810 3835 2805 3845 2685 C 3849 2641 3853 2603 3855 2600 C 3856 2597 3861 2565 3864 2528 L 3871 2460 L 3845 2460 C 3757 2460 3523 2530 3370 2602 C 3195 2684 3069 2772 2921 2914 C 2723 3106 2593 3307 2506 3559 C 2472 3657 2430 3833 2430 3879 C 2430 3905 2427 3905 2613 3880 z M 5714 3858 C 5692 3688 5645 3539 5564 3375 C 5338 2917 4912 2584 4418 2480 C 4367 2469 4314 2460 4301 2460 C 4279 2460 4278 2463 4283 2508 C 4286 2534 4293 2602 4300 2660 C 4315 2799 4317 2807 4337 2815 C 4347 2819 4387 2830 4427 2840 C 4587 2882 4766 2973 4897 3079 L 4959 3129 L 5081 3033 L 5203 2937 L 5222 2960 C 5238 2980 5239 2985 5227 2999 C 5219 3008 5176 3061 5132 3118 L 5051 3221 L 5097 3278 C 5161 3356 5220 3451 5262 3540 C 5296 3611 5360 3796 5360 3823 C 5361 3855 5381 3863 5521 3880 C 5737 3906 5721 3908 5714 3858 z M 2900 3835 C 2907 3827 2927 3776 2945 3723 C 2990 3588 3055 3468 3143 3358 C 3166 3329 3170 3318 3161 3303 C 3137 3257 3125 3257 3088 3302 C 3033 3370 2976 3459 2935 3539 C 2899 3611 2830 3806 2830 3836 C 2830 3855 2884 3855 2900 3835 z M 5315 3818 C 5285 3673 5197 3486 5093 3345 L 5029 3258 L 5004 3281 C 4991 3293 4980 3308 4980 3314 C 4980 3320 5004 3358 5034 3398 C 5105 3493 5172 3624 5210 3740 C 5227 3791 5243 3836 5246 3841 C 5249 3846 5267 3850 5286 3850 C 5321 3850 5321 3849 5315 3818 z M 3273 3804 C 3414 3788 3530 3773 3530 3770 C 3530 3767 3455 3671 3364 3557 L 3199 3348 L 3149 3412 C 3089 3489 3011 3638 2976 3744 C 2962 3787 2950 3827 2950 3832 C 2950 3838 2964 3840 2983 3837 C 3000 3835 3131 3820 3273 3804 z M 5194 3813 C 5166 3694 5076 3510 4993 3406 L 4949 3349 L 4832 3497 C 4651 3725 4627 3757 4628 3766 C 4629 3773 5095 3835 5178 3839 C 5197 3840 5200 3836 5194 3813 z M 3779 3256 C 3796 3107 3808 2984 3805 2982 C 3796 2973 3628 3036 3540 3082 C 3455 3126 3320 3217 3321 3230 C 3321 3233 3414 3308 3528 3398 C 3703 3536 3736 3559 3742 3543 C 3746 3533 3763 3404 3779 3256 z M 4449 3533 C 4469 3518 4563 3444 4658 3368 L 4831 3231 L 4775 3187 C 4669 3104 4486 3014 4367 2986 L 4339 2979 L 4344 3027 C 4376 3285 4400 3507 4400 3531 C 4400 3567 4404 3567 4449 3533 z M 3397 3126 C 3553 3029 3586 3013 3710 2971 L 3815 2935 L 3818 2897 L 3821 2858 L 3788 2865 C 3624 2899 3418 3000 3272 3118 L 3229 3153 L 3251 3176 C 3264 3189 3275 3200 3276 3200 C 3277 3200 3331 3167 3397 3126 z M 4899 3176 L 4922 3151 L 4834 3085 C 4726 3006 4556 2920 4436 2886 C 4388 2871 4343 2860 4338 2860 C 4333 2860 4330 2877 4332 2897 L 4335 2935 L 4440 2970 C 4568 3014 4692 3077 4785 3147 C 4823 3176 4860 3200 4866 3200 C 4872 3200 4887 3189 4899 3176 z" stroke-linecap="round" />
</g>
		<g transform="matrix(0.13 0 0 -0.13 -267.33 -277.22)"  >
<path style="stroke: none; stroke-width: 1; stroke-dasharray: none; stroke-linecap: butt; stroke-dashoffset: 0; stroke-linejoin: miter; stroke-miterlimit: 4; fill: rgb(255,255,255); fill-rule: nonzero; opacity: 1;" vector-effect="non-scaling-stroke"  transform=" translate(-2095, -6080)" d="M 1893 6274 C 1889 6263 1942 6203 2081 6064 C 2188 5957 2278 5870 2283 5870 C 2287 5870 2293 5877 2297 5886 C 2301 5897 2248 5957 2109 6096 C 2002 6203 1912 6290 1907 6290 C 1903 6290 1897 6283 1893 6274 z" stroke-linecap="round" />
</g>
		<g transform="matrix(0.13 0 0 -0.13 259.82 -277.88)"  >
<path style="stroke: none; stroke-width: 1; stroke-dasharray: none; stroke-linecap: butt; stroke-dashoffset: 0; stroke-linejoin: miter; stroke-miterlimit: 4; fill: rgb(255,255,255); fill-rule: nonzero; opacity: 1;" vector-effect="non-scaling-stroke"  transform=" translate(-6048.69, -6085)" d="M 6031 6096 C 5854 5919 5824 5880 5863 5880 C 5870 5880 5962 5967 6068 6073 C 6219 6225 6258 6268 6248 6278 C 6241 6285 6233 6290 6230 6290 C 6227 6290 6138 6203 6031 6096 z" stroke-linecap="round" />
</g>
		<g transform="matrix(0.13 0 0 -0.13 -208.22 -250.42)"  >
<path style="stroke: none; stroke-width: 1; stroke-dasharray: none; stroke-linecap: butt; stroke-dashoffset: 0; stroke-linejoin: miter; stroke-miterlimit: 4; fill: rgb(255,255,255); fill-rule: nonzero; opacity: 1;" vector-effect="non-scaling-stroke"  transform=" translate(-2538.33, -5879)" d="M 2610 6055 C 2582 6026 2579 6018 2590 6005 C 2600 5993 2606 5992 2617 6001 C 2624 6008 2632 6011 2634 6009 C 2642 6001 2678 5924 2685 5902 C 2692 5879 2691 5879 2628 5911 C 2552 5949 2552 5949 2570 5960 C 2581 5967 2581 5971 2571 5984 C 2560 5998 2551 5994 2505 5952 C 2465 5918 2454 5902 2462 5893 C 2467 5886 2481 5882 2492 5883 C 2508 5885 2516 5873 2535 5823 C 2547 5788 2555 5760 2551 5760 C 2548 5760 2523 5773 2495 5788 C 2457 5809 2446 5821 2447 5837 C 2448 5849 2444 5863 2437 5869 C 2427 5877 2412 5867 2375 5830 C 2326 5781 2318 5746 2359 5757 C 2371 5760 2411 5744 2465 5715 L 2551 5668 L 2580 5695 L 2609 5723 L 2585 5786 C 2572 5821 2565 5850 2569 5850 C 2574 5850 2602 5839 2633 5826 L 2688 5801 L 2716 5831 L 2744 5860 L 2703 5949 C 2678 6004 2666 6043 2671 6051 C 2679 6064 2665 6090 2651 6090 C 2647 6090 2629 6074 2610 6055 z" stroke-linecap="round" />
</g>
		<g transform="matrix(0.13 0 0 -0.13 200.95 -247.32)"  >
<path style="stroke: none; stroke-width: 1; stroke-dasharray: none; stroke-linecap: butt; stroke-dashoffset: 0; stroke-linejoin: miter; stroke-miterlimit: 4; fill: rgb(255,255,255); fill-rule: nonzero; opacity: 1;" vector-effect="non-scaling-stroke"  transform=" translate(-5607.13, -5855.75)" d="M 5582 6048 C 5576 6040 5573 6025 5576 6014 C 5583 5986 5487 5892 5467 5908 C 5456 5918 5450 5917 5440 5904 C 5428 5891 5434 5882 5478 5838 C 5520 5795 5531 5789 5544 5799 C 5552 5806 5557 5817 5554 5824 C 5548 5839 5623 5910 5644 5910 C 5673 5910 5690 5897 5690 5876 C 5690 5848 5617 5775 5596 5783 C 5588 5786 5576 5782 5569 5774 C 5559 5761 5566 5750 5610 5705 C 5650 5664 5667 5653 5676 5661 C 5684 5667 5687 5683 5684 5698 C 5680 5720 5687 5734 5729 5775 C 5792 5836 5795 5864 5745 5909 C 5725 5927 5698 5940 5683 5940 C 5661 5940 5659 5942 5671 5956 C 5682 5969 5677 5978 5638 6016 C 5602 6053 5591 6059 5582 6048 z" stroke-linecap="round" />
</g>
		<g transform="matrix(0.13 0 0 -0.13 235.24 -215.91)"  >
<path style="stroke: none; stroke-width: 1; stroke-dasharray: none; stroke-linecap: butt; stroke-dashoffset: 0; stroke-linejoin: miter; stroke-miterlimit: 4; fill: rgb(255,255,255); fill-rule: nonzero; opacity: 1;" vector-effect="non-scaling-stroke"  transform=" translate(-5864.31, -5620.22)" d="M 5780 5714 C 5730 5669 5720 5626 5747 5573 C 5780 5509 5856 5472 5899 5499 C 5920 5512 5905 5543 5881 5535 C 5854 5527 5810 5550 5804 5577 C 5800 5591 5805 5611 5815 5626 L 5832 5652 L 5891 5594 L 5950 5536 L 5970 5556 C 6018 5604 5998 5687 5928 5730 C 5876 5762 5827 5756 5780 5714 z" stroke-linecap="round" />
</g>
		<g transform="matrix(0.13 0 0 -0.13 -242.43 -207.43)"  >
<path style="stroke: none; stroke-width: 1; stroke-dasharray: none; stroke-linecap: butt; stroke-dashoffset: 0; stroke-linejoin: miter; stroke-miterlimit: 4; fill: rgb(255,255,255); fill-rule: nonzero; opacity: 1;" vector-effect="non-scaling-stroke"  transform=" translate(-2281.79, -5556.61)" d="M 2234 5696 C 2212 5674 2200 5652 2200 5635 C 2200 5611 2198 5609 2185 5620 C 2171 5631 2162 5627 2125 5590 C 2091 5557 2083 5543 2091 5533 C 2099 5525 2108 5523 2119 5530 C 2147 5544 2230 5455 2227 5415 C 2226 5398 2230 5385 2236 5385 C 2241 5385 2270 5406 2300 5432 C 2344 5471 2351 5481 2341 5493 C 2335 5501 2321 5506 2311 5503 C 2290 5498 2230 5561 2230 5590 C 2230 5622 2241 5640 2262 5640 C 2290 5640 2361 5560 2354 5538 C 2351 5527 2355 5517 2365 5514 C 2377 5509 2397 5523 2433 5558 C 2476 5602 2482 5611 2470 5624 C 2460 5637 2454 5638 2443 5628 C 2432 5619 2418 5627 2372 5673 C 2304 5740 2282 5744 2234 5696 z" stroke-linecap="round" />
</g>
		<g transform="matrix(0.13 0 0 -0.13 -301.22 -185.86)"  >
<path style="stroke: none; stroke-width: 1; stroke-dasharray: none; stroke-linecap: butt; stroke-dashoffset: 0; stroke-linejoin: miter; stroke-miterlimit: 4; fill: rgb(255,255,255); fill-rule: nonzero; opacity: 1;" vector-effect="non-scaling-stroke"  transform=" translate(-1840.83, -5394.79)" d="M 1798 5450 C 1777 5437 1766 5387 1779 5362 C 1802 5319 1877 5317 1899 5359 C 1934 5424 1863 5487 1798 5450 z" stroke-linecap="round" />
</g>
		<g transform="matrix(0.13 0 0 -0.13 -477.93 -16.28)"  >
<path style="stroke: none; stroke-width: 1; stroke-dasharray: none; stroke-linecap: butt; stroke-dashoffset: 0; stroke-linejoin: miter; stroke-miterlimit: 4; fill: rgb(255,255,255); fill-rule: nonzero; opacity: 1;" vector-effect="non-scaling-stroke"  transform=" translate(-515.5, -4123)" d="M 180 4520 L 180 4404 L 215 4408 C 244 4411 250 4416 250 4435 C 250 4483 265 4482 490 4425 C 607 4394 705 4368 708 4366 C 710 4363 692 4356 669 4350 C 645 4344 545 4316 447 4289 C 349 4262 264 4242 259 4246 C 254 4249 250 4264 250 4279 C 250 4304 246 4308 215 4312 L 180 4316 L 180 4168 L 180 4020 L 213 4020 C 240 4020 248 4025 257 4050 C 264 4068 275 4080 286 4080 C 304 4080 702 3972 708 3965 C 716 3957 281 3858 264 3864 C 256 3867 250 3883 250 3900 C 250 3928 247 3930 215 3930 L 180 3930 L 180 3770 L 180 3610 L 215 3610 C 243 3610 252 3615 259 3633 C 264 3646 274 3661 281 3667 C 292 3675 825 3820 846 3820 C 849 3820 849 3861 848 3912 L 845 4004 L 666 4056 C 568 4086 486 4111 484 4112 C 483 4114 564 4140 666 4169 L 851 4224 L 848 4314 L 845 4405 L 567 4482 C 414 4524 283 4563 275 4570 C 268 4576 259 4591 256 4604 C 252 4622 242 4629 215 4632 L 180 4636 L 180 4520 z" stroke-linecap="round" />
</g>
		<g transform="matrix(0.13 0 0 -0.13 476 -15.12)"  >
<path style="stroke: none; stroke-width: 1; stroke-dasharray: none; stroke-linecap: butt; stroke-dashoffset: 0; stroke-linejoin: miter; stroke-miterlimit: 4; fill: rgb(255,255,255); fill-rule: nonzero; opacity: 1;" vector-effect="non-scaling-stroke"  transform=" translate(-7670, -4114.31)" d="M 7320 4125 C 7320 3946 7323 3800 7328 3799 C 7332 3799 7392 3793 7463 3786 C 7580 3775 7590 3776 7590 3791 C 7590 3800 7593 3821 7596 3838 C 7602 3867 7601 3868 7551 3880 C 7450 3904 7420 3951 7420 4085 L 7420 4170 L 7536 4170 L 7651 4170 L 7648 4133 C 7645 4094 7625 4077 7568 4065 C 7543 4060 7540 4055 7540 4021 L 7540 3983 L 7638 3977 C 7691 3973 7759 3970 7788 3970 L 7840 3970 L 7840 4009 C 7840 4044 7837 4048 7808 4054 C 7751 4065 7730 4086 7730 4131 L 7730 4171 L 7828 4168 L 7925 4165 L 7925 4065 C 7925 3945 7912 3917 7850 3900 C 7811 3889 7810 3888 7810 3845 L 7810 3800 L 7915 3800 L 8020 3800 L 8020 4125 L 8020 4450 L 7980 4450 C 7943 4450 7940 4448 7940 4421 C 7940 4405 7934 4387 7926 4381 C 7917 4373 7839 4370 7664 4372 L 7415 4375 L 7406 4413 C 7397 4448 7394 4450 7358 4450 L 7320 4450 L 7320 4125 z" stroke-linecap="round" />
</g>
		<g transform="matrix(0.13 0 0 -0.13 328.3 75.02)"  >
<path style="stroke: none; stroke-width: 1; stroke-dasharray: none; stroke-linecap: butt; stroke-dashoffset: 0; stroke-linejoin: miter; stroke-miterlimit: 4; fill: rgb(255,255,255); fill-rule: nonzero; opacity: 1;" vector-effect="non-scaling-stroke"  transform=" translate(-6562.22, -3438.23)" d="M 6534 3499 C 6501 3482 6487 3444 6502 3412 C 6532 3349 6622 3362 6628 3430 C 6630 3449 6625 3473 6618 3482 C 6601 3504 6561 3512 6534 3499 z" stroke-linecap="round" />
</g>
		<g transform="matrix(0.13 0 0 -0.13 -301.11 157.7)"  >
<path style="stroke: none; stroke-width: 1; stroke-dasharray: none; stroke-linecap: butt; stroke-dashoffset: 0; stroke-linejoin: miter; stroke-miterlimit: 4; fill: rgb(255,255,255); fill-rule: nonzero; opacity: 1;" vector-effect="non-scaling-stroke"  transform=" translate(-1841.64, -2818.14)" d="M 1811 2877 C 1748 2846 1770 2758 1843 2752 C 1870 2750 1882 2754 1894 2772 C 1915 2801 1914 2833 1893 2858 C 1869 2885 1840 2892 1811 2877 z" stroke-linecap="round" />
</g>
		<g transform="matrix(0.13 0 0 -0.13 -237.93 195.11)"  >
<path style="stroke: none; stroke-width: 1; stroke-dasharray: none; stroke-linecap: butt; stroke-dashoffset: 0; stroke-linejoin: miter; stroke-miterlimit: 4; fill: rgb(255,255,255); fill-rule: nonzero; opacity: 1;" vector-effect="non-scaling-stroke"  transform=" translate(-2315.53, -2537.59)" d="M 2236 2699 C 2193 2677 2149 2661 2139 2663 C 2101 2673 2099 2645 2134 2611 C 2169 2577 2196 2577 2185 2610 C 2180 2626 2191 2635 2239 2660 C 2273 2677 2300 2686 2300 2681 C 2300 2676 2289 2647 2275 2616 C 2254 2569 2246 2560 2231 2565 C 2192 2577 2199 2547 2246 2499 C 2282 2462 2297 2453 2307 2461 C 2316 2469 2317 2478 2310 2490 C 2302 2505 2308 2510 2353 2528 C 2382 2539 2414 2551 2424 2556 C 2440 2562 2438 2553 2410 2501 C 2384 2453 2372 2440 2359 2443 C 2349 2446 2336 2442 2331 2436 C 2323 2427 2334 2410 2369 2376 C 2416 2329 2446 2322 2437 2358 C 2435 2368 2453 2415 2478 2464 L 2522 2553 L 2493 2582 L 2463 2611 L 2405 2585 C 2373 2571 2345 2562 2342 2565 C 2339 2567 2349 2596 2363 2629 L 2388 2688 L 2361 2714 C 2346 2728 2330 2740 2324 2740 C 2319 2739 2280 2721 2236 2699 z" stroke-linecap="round" />
</g>
		<g transform="matrix(0.13 0 0 -0.13 232.54 190.39)"  >
<path style="stroke: none; stroke-width: 1; stroke-dasharray: none; stroke-linecap: butt; stroke-dashoffset: 0; stroke-linejoin: miter; stroke-miterlimit: 4; fill: rgb(255,255,255); fill-rule: nonzero; opacity: 1;" vector-effect="non-scaling-stroke"  transform=" translate(-5844.06, -2572.94)" d="M 5822 2718 C 5815 2711 5810 2700 5810 2694 C 5810 2687 5801 2679 5791 2675 C 5758 2665 5710 2602 5710 2570 C 5710 2534 5741 2500 5773 2500 C 5785 2500 5818 2514 5845 2530 C 5901 2563 5920 2567 5920 2545 C 5920 2519 5877 2488 5847 2493 C 5802 2499 5792 2475 5825 2440 C 5847 2417 5857 2413 5867 2421 C 5874 2427 5880 2439 5880 2446 C 5880 2453 5893 2466 5909 2475 C 5974 2508 5998 2572 5960 2610 C 5932 2638 5896 2635 5833 2599 C 5779 2568 5753 2569 5765 2601 C 5774 2625 5829 2653 5856 2647 C 5896 2640 5905 2671 5872 2704 C 5840 2734 5838 2734 5822 2718 z" stroke-linecap="round" />
</g>
		<g transform="matrix(0.13 0 0 -0.13 206.25 217.57)"  >
<path style="stroke: none; stroke-width: 1; stroke-dasharray: none; stroke-linecap: butt; stroke-dashoffset: 0; stroke-linejoin: miter; stroke-miterlimit: 4; fill: rgb(255,255,255); fill-rule: nonzero; opacity: 1;" vector-effect="non-scaling-stroke"  transform=" translate(-5646.88, -2369.13)" d="M 5583 2480 C 5565 2470 5544 2450 5535 2436 C 5516 2408 5512 2344 5528 2328 C 5544 2312 5560 2328 5560 2360 C 5560 2424 5592 2450 5640 2425 C 5656 2416 5670 2406 5670 2402 C 5670 2398 5645 2370 5615 2340 C 5585 2310 5560 2283 5560 2279 C 5560 2275 5578 2263 5601 2252 C 5649 2228 5688 2235 5732 2276 C 5793 2335 5790 2412 5724 2470 C 5682 2506 5631 2510 5583 2480 z" stroke-linecap="round" />
</g>
		<g transform="matrix(0.13 0 0 -0.13 -198.4 226.91)"  >
<path style="stroke: none; stroke-width: 1; stroke-dasharray: none; stroke-linecap: butt; stroke-dashoffset: 0; stroke-linejoin: miter; stroke-miterlimit: 4; fill: rgb(255,255,255); fill-rule: nonzero; opacity: 1;" vector-effect="non-scaling-stroke"  transform=" translate(-2611.98, -2299.06)" d="M 2572 2420 C 2530 2394 2530 2360 2571 2296 C 2613 2229 2596 2189 2550 2247 C 2535 2267 2530 2283 2534 2303 C 2542 2341 2516 2350 2484 2320 C 2455 2292 2454 2280 2479 2273 C 2490 2270 2504 2255 2510 2240 C 2537 2174 2599 2146 2643 2180 C 2680 2209 2678 2250 2639 2311 C 2609 2358 2608 2380 2634 2380 C 2657 2380 2683 2341 2685 2304 C 2689 2249 2704 2241 2740 2275 C 2763 2297 2767 2307 2759 2317 C 2753 2324 2742 2330 2736 2330 C 2730 2330 2716 2346 2706 2365 C 2672 2427 2620 2449 2572 2420 z" stroke-linecap="round" />
</g>
		<g transform="matrix(0.13 0 0 -0.13 -266.99 249.45)"  >
<path style="stroke: none; stroke-width: 1; stroke-dasharray: none; stroke-linecap: butt; stroke-dashoffset: 0; stroke-linejoin: miter; stroke-miterlimit: 4; fill: rgb(255,255,255); fill-rule: nonzero; opacity: 1;" vector-effect="non-scaling-stroke"  transform=" translate(-2097.54, -2130)" d="M 2082 2147 C 1937 2002 1891 1950 1896 1937 C 1899 1928 1905 1920 1909 1920 C 1912 1920 2004 2009 2113 2118 C 2268 2273 2308 2318 2298 2328 C 2291 2335 2283 2340 2280 2340 C 2277 2340 2188 2253 2082 2147 z" stroke-linecap="round" />
</g>
		<g transform="matrix(0.13 0 0 -0.13 260 249.45)"  >
<path style="stroke: none; stroke-width: 1; stroke-dasharray: none; stroke-linecap: butt; stroke-dashoffset: 0; stroke-linejoin: miter; stroke-miterlimit: 4; fill: rgb(255,255,255); fill-rule: nonzero; opacity: 1;" vector-effect="non-scaling-stroke"  transform=" translate(-6050, -2130)" d="M 5852 2328 C 5843 2317 5881 2274 6039 2116 C 6198 1958 6239 1921 6248 1932 C 6257 1943 6219 1986 6061 2144 C 5902 2302 5861 2339 5852 2328 z" stroke-linecap="round" />
</g>
		<g transform="matrix(0.13 0 0 -0.13 2 471.46)"  >
<path style="stroke: none; stroke-width: 1; stroke-dasharray: none; stroke-linecap: butt; stroke-dashoffset: 0; stroke-linejoin: miter; stroke-miterlimit: 4; fill: rgb(255,255,255); fill-rule: nonzero; opacity: 1;" vector-effect="non-scaling-stroke"  transform=" translate(-4115, -464.92)" d="M 3940 851 C 3897 837 3856 813 3833 788 C 3765 715 3762 567 3827 490 C 3874 433 3928 414 4157 369 C 4264 349 4304 309 4281 248 C 4266 207 4227 188 4151 182 C 4021 173 3903 233 3880 321 C 3870 359 3868 360 3825 360 L 3780 360 L 3780 223 L 3780 85 L 3824 86 C 3854 87 3874 94 3889 109 C 3915 135 3916 135 3985 104 C 4026 85 4065 76 4125 73 C 4330 60 4450 149 4450 317 C 4450 394 4439 425 4392 473 C 4347 519 4286 542 4139 570 C 4077 582 4011 598 3994 605 C 3930 631 3925 695 3983 730 C 4021 753 4119 757 4183 738 C 4235 722 4298 663 4306 621 C 4314 581 4322 577 4370 585 L 4410 592 L 4410 716 C 4410 808 4407 840 4398 841 C 4361 844 4324 836 4317 824 C 4306 804 4269 807 4213 831 C 4161 854 3988 867 3940 851 z" stroke-linecap="round" />
</g>
</g>
</g>
</svg>