<?xml version="1.0" standalone="no"?>
<!DOCTYPE svg PUBLIC "-//W3C//DTD SVG 20010904//EN"
 "http://www.w3.org/TR/2001/REC-SVG-20010904/DTD/svg10.dtd">
<svg version="1.0" xmlns="http://www.w3.org/2000/svg"
 width="820.000000pt" height="800.000000pt" viewBox="0 0 820.000000 800.000000"
 preserveAspectRatio="xMidYMid meet">
<metadata>
Created by potrace 1.16, written by Peter Selinger 2001-2019
</metadata>
<g transform="translate(0.000000,800.000000) scale(0.100000,-0.100000)"
fill="#000000" stroke="none">
<path d="M3780 7895 c0 -30 3 -35 23 -35 47 0 48 -3 45 -231 l-3 -214 -32 -10
c-29 -8 -33 -14 -33 -42 l0 -33 115 0 115 0 0 33 c0 28 -4 34 -32 42 l-33 10
-2 180 -3 180 48 -82 c26 -46 82 -146 125 -223 l78 -140 94 0 94 0 3 255 c3
275 3 274 56 275 19 0 22 5 22 35 l0 35 -115 0 -115 0 0 -35 c0 -30 3 -35 23
-35 44 0 47 -14 47 -199 -1 -152 -3 -174 -14 -158 -8 10 -65 110 -128 223
l-113 204 -132 0 -133 0 0 -35z"/>
<path d="M4046 7243 c-3 -16 -10 -71 -16 -123 -6 -52 -13 -105 -15 -116 -2
-12 -13 -114 -25 -225 -18 -170 -25 -207 -40 -220 -13 -11 -49 -19 -112 -24
-238 -18 -513 -90 -753 -196 -116 -52 -300 -153 -311 -170 -3 -6 0 -18 8 -26
13 -12 21 -11 64 15 285 167 577 270 895 317 113 16 223 20 216 7 -3 -4 -6
-27 -8 -52 -4 -71 -10 -76 -86 -84 -316 -31 -605 -121 -880 -274 -77 -42 -82
-47 -67 -63 14 -16 23 -13 137 46 178 93 347 156 550 204 66 16 243 41 291 41
l39 0 -7 -72 c-3 -40 -8 -84 -10 -98 -2 -14 -7 -52 -11 -85 -14 -131 -7 -121
-93 -135 -273 -42 -515 -134 -733 -278 -425 -280 -692 -681 -795 -1192 -15
-74 -31 -139 -35 -144 -6 -7 -135 -25 -306 -42 l-63 -6 0 41 c0 88 35 275 81
437 38 133 86 252 165 404 64 124 64 125 44 144 -19 19 -20 19 -93 -135 -41
-85 -90 -195 -110 -245 -51 -126 -103 -338 -125 -504 -10 -77 -22 -143 -26
-147 -3 -4 -34 -9 -68 -11 l-61 -5 6 94 c22 312 139 683 307 974 27 48 50 90
50 93 0 3 -8 14 -17 24 -16 18 -19 14 -66 -69 -191 -341 -299 -679 -323 -1008
-4 -49 -10 -97 -15 -106 -6 -11 -29 -18 -81 -23 -81 -7 -544 -63 -596 -72 -25
-4 -32 -10 -32 -28 0 -29 -22 -25 380 -72 179 -21 328 -42 331 -46 3 -5 7 -34
8 -66 6 -161 60 -420 131 -627 67 -193 246 -541 274 -532 29 10 26 35 -13 99
-91 150 -178 340 -234 513 -55 165 -107 443 -107 565 l0 49 37 -5 c21 -3 52
-7 69 -10 l30 -4 12 -112 c33 -297 123 -581 263 -834 73 -130 75 -133 95 -113
14 14 12 21 -16 69 -101 171 -185 374 -235 563 -34 133 -65 313 -65 382 l0 38
65 -6 c92 -8 266 -28 292 -33 18 -3 23 -15 33 -76 6 -40 27 -131 45 -203 118
-454 363 -801 745 -1051 99 -65 269 -154 380 -198 105 -43 243 -77 404 -101
22 -3 42 -7 44 -9 4 -5 42 -319 42 -353 0 -20 -5 -23 -43 -23 -61 0 -307 45
-411 75 -136 39 -269 92 -398 156 -103 52 -118 57 -129 43 -18 -21 -4 -31 146
-104 210 -103 479 -181 721 -210 55 -7 106 -15 113 -20 7 -4 16 -35 20 -69 l7
-61 -41 0 c-169 0 -506 75 -722 161 -85 33 -241 109 -317 154 -45 26 -49 27
-64 11 -16 -16 -15 -18 8 -37 39 -31 295 -154 401 -193 202 -74 438 -128 627
-142 51 -4 98 -12 106 -18 8 -7 19 -66 30 -166 43 -398 62 -531 77 -541 25
-16 37 -10 43 24 5 29 40 324 68 576 10 89 14 104 32 111 12 4 75 13 141 20
315 31 654 140 937 302 60 34 107 66 105 72 -10 30 -36 28 -93 -6 -146 -88
-370 -186 -544 -238 -132 -39 -347 -79 -468 -87 l-92 -6 6 49 c12 87 15 91 86
99 300 32 542 101 793 226 172 86 184 94 164 114 -13 13 -33 5 -169 -63 -159
-80 -338 -146 -491 -182 -96 -22 -275 -50 -329 -50 l-36 0 21 180 c12 99 26
185 31 190 6 6 51 17 100 25 246 40 444 114 664 251 465 287 748 713 844 1268
9 49 18 91 21 94 6 6 293 41 344 41 l34 1 -7 -82 c-20 -235 -106 -525 -226
-764 -69 -137 -76 -154 -62 -168 14 -14 17 -13 32 12 163 268 275 613 306 939
7 81 0 75 107 87 l37 4 0 -47 c0 -65 -25 -238 -50 -356 -46 -213 -149 -475
-266 -678 -41 -71 -44 -81 -31 -94 8 -9 20 -12 26 -9 17 11 117 193 167 306
112 252 204 625 204 826 0 23 6 46 13 52 6 5 158 26 337 47 179 20 335 39 347
42 21 5 41 38 30 50 -3 2 -77 13 -164 23 -87 10 -239 28 -338 40 -99 11 -190
25 -202 30 -19 8 -23 17 -23 57 -1 139 -58 426 -121 608 -59 173 -157 384
-221 476 -14 21 -18 22 -32 9 -14 -13 -7 -33 72 -190 127 -253 199 -482 237
-755 8 -55 15 -124 15 -152 0 -52 0 -52 -27 -48 -16 2 -45 7 -65 10 -21 3 -39
9 -42 13 -2 4 -10 55 -16 112 -25 231 -105 507 -208 722 -33 67 -67 132 -75
143 -14 18 -17 18 -31 5 -13 -13 -7 -30 49 -142 104 -211 161 -386 201 -616
29 -176 31 -222 7 -222 -31 0 -354 38 -358 41 -2 2 -11 49 -20 104 -135 796
-735 1386 -1542 1515 -70 11 -73 13 -77 43 -12 75 -36 286 -36 316 l0 34 80
-6 c121 -10 320 -53 470 -103 137 -45 345 -140 433 -196 l48 -31 21 21 21 20
-169 85 c-93 46 -211 101 -263 121 -133 53 -338 103 -498 123 -82 10 -141 22
-149 31 -8 7 -14 31 -14 52 0 21 -3 45 -6 54 -19 49 402 -19 654 -105 128 -44
357 -151 467 -218 67 -41 92 -45 102 -15 4 11 -146 104 -252 157 -248 123
-551 211 -816 237 -63 6 -125 15 -139 18 l-25 7 -42 355 c-23 195 -42 356 -42
358 -1 1 -12 2 -25 2 -19 0 -26 -7 -30 -27z m32 -1590 c1 -841 2 -1530 2
-1533 0 -5 106 157 211 324 62 96 192 226 344 341 72 54 209 161 305 238 96
77 182 145 190 150 8 6 -217 -222 -500 -506 -283 -284 -511 -519 -508 -522 3
-3 95 51 203 120 108 70 208 131 222 136 18 6 68 5 157 -6 189 -22 383 -44
441 -50 28 -3 104 -12 170 -20 214 -26 547 -64 655 -75 131 -14 118 -12 525
-60 187 -23 410 -48 495 -58 153 -17 131 -17 -1372 -20 -1381 -2 -1528 -4
-1528 -18 0 -8 46 -86 102 -172 136 -211 173 -273 180 -300 5 -18 -18 -262
-47 -497 -7 -54 -44 -369 -50 -425 -3 -25 -14 -124 -25 -220 -11 -96 -32 -274
-45 -395 -14 -121 -39 -335 -55 -475 -17 -140 -32 -273 -35 -295 -2 -22 -9
-89 -16 -150 -6 -60 -15 -114 -19 -119 -5 -4 -8 676 -7 1512 l2 1520 -27 -3
c-15 -2 -119 -62 -230 -133 -112 -71 -212 -132 -224 -136 -11 -3 -133 7 -270
23 -137 17 -292 35 -344 40 -52 6 -230 27 -395 46 -165 19 -500 58 -745 85
-245 27 -463 52 -485 55 -92 11 -340 45 -350 47 -5 2 680 5 1523 8 l1532 5
-232 150 -231 150 -299 375 c-164 206 -304 384 -310 395 -5 11 229 -218 522
-510 293 -291 530 -523 528 -515 -3 8 -60 100 -128 204 -67 103 -126 200 -131
215 -6 18 -1 95 15 241 14 118 41 355 61 525 19 171 37 326 40 345 2 19 7 58
10 85 4 46 38 334 50 430 2 22 14 121 25 220 11 99 29 257 40 350 11 94 25
223 32 288 7 64 15 117 18 117 4 0 7 -687 8 -1527z m-198 187 c0 -24 -21 -35
-85 -45 -159 -22 -417 -111 -565 -194 -426 -238 -754 -696 -839 -1169 -11 -62
-23 -117 -26 -123 -4 -5 -15 -9 -27 -9 -19 0 -20 4 -13 58 11 94 71 310 114
416 93 227 228 424 413 601 265 254 557 405 911 470 105 19 117 18 117 -5z
m527 -1 c238 -46 498 -155 682 -287 373 -267 627 -656 716 -1098 31 -151 31
-156 3 -152 -19 2 -25 13 -36 63 -59 263 -96 376 -178 539 -221 438 -720 810
-1186 882 -120 19 -132 24 -136 53 -4 26 -1 26 135 0z m-543 -151 c-15 -157
-33 -270 -44 -283 -7 -8 -20 -15 -28 -15 -34 0 -192 -54 -278 -95 -96 -46
-256 -148 -288 -184 -11 -12 -26 -21 -34 -21 -11 0 -135 93 -224 167 -13 12
-20 12 -37 1 -12 -7 -21 -17 -21 -21 0 -5 41 -60 90 -123 50 -62 90 -118 90
-125 0 -6 -17 -32 -39 -58 -113 -136 -215 -339 -251 -504 -7 -31 -19 -62 -27
-68 -9 -8 -259 -44 -340 -49 -18 -1 28 212 74 344 89 258 217 452 435 662 210
202 467 340 763 409 55 13 115 24 133 24 l33 1 -7 -62z m563 41 c248 -54 481
-165 689 -330 85 -68 249 -241 316 -335 126 -176 228 -413 269 -625 26 -137
28 -131 -28 -124 -206 24 -289 37 -299 48 -6 6 -21 50 -33 96 -44 165 -130
332 -240 469 l-51 62 96 121 96 121 -20 21 -20 20 -122 -96 -122 -96 -63 52
c-128 105 -302 193 -476 241 -50 14 -94 27 -96 30 -5 4 -43 297 -43 329 0 23
27 22 147 -4z m-607 -407 c0 -39 -20 -53 -130 -92 -125 -43 -175 -69 -297
-151 -56 -38 -106 -69 -111 -69 -5 0 -19 11 -31 24 l-22 24 43 34 c126 101
290 188 438 232 108 32 110 32 110 -2z m643 -6 c152 -50 300 -129 415 -224 34
-28 40 -37 30 -49 -32 -39 -45 -36 -131 26 -100 73 -234 140 -347 176 -91 28
-100 35 -100 78 0 35 6 34 133 -7z m-656 -123 c-4 -21 -18 -141 -32 -268 -33
-287 -30 -270 -41 -268 -11 2 -413 316 -413 323 -2 12 154 117 226 154 75 38
223 94 252 96 10 0 12 -9 8 -37z m631 11 c135 -45 366 -179 379 -220 5 -14
-399 -336 -408 -326 -3 4 -11 58 -18 120 -6 62 -14 129 -16 150 -12 91 -35
287 -35 294 0 13 17 10 98 -18z m-1268 -307 c0 -5 -27 -45 -59 -90 -83 -115
-124 -195 -167 -322 -20 -60 -41 -113 -48 -117 -6 -4 -23 -8 -38 -8 -36 0 -36
9 6 135 53 157 125 291 224 413 l34 43 24 -22 c13 -12 24 -27 24 -32z m1925
-34 c102 -137 190 -326 220 -470 6 -31 5 -33 -23 -33 -39 0 -49 14 -84 117
-39 117 -98 231 -169 330 -32 45 -59 84 -59 88 0 10 34 54 43 55 4 0 36 -39
72 -87z m-1732 -206 c87 -111 158 -206 158 -212 0 -8 -142 -28 -436 -59 -33
-3 -77 -9 -97 -12 -22 -3 -38 -2 -38 4 0 25 55 172 91 245 39 78 146 238 158
237 3 -1 77 -92 164 -203z m1672 93 c60 -91 108 -191 139 -289 15 -46 25 -85
23 -87 -5 -6 -538 56 -560 64 -14 6 10 42 145 213 l163 207 23 -22 c13 -11 43
-50 67 -86z m-768 -768 c301 -192 264 -159 501 -457 354 -444 386 -485 381
-485 -2 0 -236 232 -519 515 -283 283 -512 515 -508 515 5 0 70 -40 145 -88z
m-244 45 c-4 -7 -64 -100 -132 -206 l-124 -192 -191 -152 c-263 -210 -462
-367 -500 -396 -17 -13 189 197 459 467 269 271 491 492 493 492 2 0 -1 -6 -5
-13z m-1650 -162 c96 -443 213 -685 452 -934 273 -284 604 -459 983 -521 67
-11 72 -14 72 -37 0 -23 -2 -24 -47 -18 -404 56 -751 236 -1039 538 -246 258
-397 557 -459 908 -19 109 -19 111 7 107 17 -2 24 -13 31 -43z m3457 28 c0
-42 -52 -261 -85 -359 -208 -621 -773 -1088 -1428 -1179 -47 -6 -48 -6 -45 17
2 19 12 25 63 36 412 89 669 215 918 452 260 246 444 580 503 912 9 51 20 103
25 116 10 27 49 31 49 5z m-3217 -13 c148 -19 177 -28 177 -58 0 -9 12 -54 26
-101 45 -149 141 -329 235 -442 22 -26 39 -52 39 -58 0 -6 -41 -63 -91 -126
-89 -113 -100 -138 -65 -151 9 -3 63 33 136 90 l121 96 64 -53 c127 -105 307
-196 474 -240 101 -27 106 -32 116 -152 4 -44 8 -82 10 -85 1 -3 6 -35 9 -72
l7 -68 -26 0 c-88 0 -322 70 -475 142 -175 82 -301 170 -449 312 -198 192
-328 393 -415 645 -34 98 -76 274 -76 320 0 26 -3 26 183 1z m3101 -22 c-22
-170 -69 -319 -150 -483 -226 -458 -652 -791 -1146 -895 -51 -11 -104 -20
-117 -20 -22 0 -23 3 -18 48 3 26 10 94 17 152 15 139 17 147 37 155 10 4 50
15 90 25 160 42 339 133 470 239 l62 50 122 -96 122 -96 19 23 c16 20 17 25 5
39 -8 9 -51 62 -95 119 l-81 103 46 57 c64 78 123 173 165 262 34 71 98 256
98 283 1 32 21 40 161 57 216 26 200 28 193 -22z m-2814 -23 c7 -8 27 -59 45
-112 45 -135 110 -255 198 -365 23 -29 27 -40 18 -55 -24 -46 -36 -46 -73 -1
-55 68 -112 157 -153 237 -36 72 -105 267 -105 297 0 19 54 19 70 -1z m2415
-17 c-30 -145 -118 -332 -222 -473 l-64 -87 -25 23 c-13 12 -24 27 -24 33 0 6
24 44 54 84 71 95 138 226 176 342 17 51 33 96 36 101 3 5 21 9 40 9 35 0 35
-1 29 -32z m-2042 -14 c141 -16 257 -31 257 -34 0 -3 -75 -99 -166 -213 l-165
-209 -50 64 c-60 77 -138 226 -173 332 -14 43 -26 83 -26 88 0 6 14 8 33 5 17
-2 148 -17 290 -33z m1921 9 c-28 -119 -118 -303 -201 -407 l-44 -57 -117 148
c-181 228 -205 260 -204 269 1 7 467 69 550 73 19 1 22 -3 16 -26z m-1415
-557 c17 -149 29 -272 26 -274 -9 -9 -177 54 -265 100 -85 44 -220 135 -219
148 0 3 93 78 207 168 175 138 208 161 214 145 4 -10 21 -139 37 -287z m670
277 c20 -15 114 -89 209 -165 l173 -137 -56 -44 c-106 -83 -289 -173 -408
-201 l-28 -7 5 48 c32 258 56 480 56 504 0 36 4 36 49 2z m-1052 -407 c156
-97 189 -113 313 -155 l105 -36 3 -38 3 -39 -33 7 c-164 34 -370 135 -516 253
l-43 35 22 23 c13 13 24 24 25 24 1 0 55 -33 121 -74z m1502 50 l23 -25 -88
-66 c-108 -79 -278 -165 -398 -199 -48 -15 -93 -26 -98 -26 -5 0 -8 17 -6 37
l3 38 105 35 c128 44 252 107 345 177 38 29 75 53 81 53 6 0 21 -11 33 -24z"/>
<path d="M1893 6274 c-4 -11 49 -71 188 -210 107 -107 197 -194 202 -194 4 0
10 7 14 16 4 11 -49 71 -188 210 -107 107 -197 194 -202 194 -4 0 -10 -7 -14
-16z"/>
<path d="M6031 6096 c-177 -177 -207 -216 -168 -216 7 0 99 87 205 193 151
152 190 195 180 205 -7 7 -15 12 -18 12 -3 0 -92 -87 -199 -194z"/>
<path d="M2610 6055 c-28 -29 -31 -37 -20 -50 10 -12 16 -13 27 -4 7 7 15 10
17 8 8 -8 44 -85 51 -107 7 -23 6 -23 -57 9 -76 38 -76 38 -58 49 11 7 11 11
1 24 -11 14 -20 10 -66 -32 -40 -34 -51 -50 -43 -59 5 -7 19 -11 30 -10 16 2
24 -10 43 -60 12 -35 20 -63 16 -63 -3 0 -28 13 -56 28 -38 21 -49 33 -48 49
1 12 -3 26 -10 32 -10 8 -25 -2 -62 -39 -49 -49 -57 -84 -16 -73 12 3 52 -13
106 -42 l86 -47 29 27 29 28 -24 63 c-13 35 -20 64 -16 64 5 0 33 -11 64 -24
l55 -25 28 30 28 29 -41 89 c-25 55 -37 94 -32 102 8 13 -6 39 -20 39 -4 0
-22 -16 -41 -35z"/>
<path d="M5582 6048 c-6 -8 -9 -23 -6 -34 7 -28 -89 -122 -109 -106 -11 10
-17 9 -27 -4 -12 -13 -6 -22 38 -66 42 -43 53 -49 66 -39 8 7 13 18 10 25 -6
15 69 86 90 86 29 0 46 -13 46 -34 0 -28 -73 -101 -94 -93 -8 3 -20 -1 -27 -9
-10 -13 -3 -24 41 -69 40 -41 57 -52 66 -44 8 6 11 22 8 37 -4 22 3 36 45 77
63 61 66 89 16 134 -20 18 -47 31 -62 31 -22 0 -24 2 -12 16 11 13 6 22 -33
60 -36 37 -47 43 -56 32z"/>
<path d="M5780 5714 c-50 -45 -60 -88 -33 -141 33 -64 109 -101 152 -74 21 13
6 44 -18 36 -27 -8 -71 15 -77 42 -4 14 1 34 11 49 l17 26 59 -58 59 -58 20
20 c48 48 28 131 -42 174 -52 32 -101 26 -148 -16z"/>
<path d="M2234 5696 c-22 -22 -34 -44 -34 -61 0 -24 -2 -26 -15 -15 -14 11
-23 7 -60 -30 -34 -33 -42 -47 -34 -57 8 -8 17 -10 28 -3 28 14 111 -75 108
-115 -1 -17 3 -30 9 -30 5 0 34 21 64 47 44 39 51 49 41 61 -6 8 -20 13 -30
10 -21 -5 -81 58 -81 87 0 32 11 50 32 50 28 0 99 -80 92 -102 -3 -11 1 -21
11 -24 12 -5 32 9 68 44 43 44 49 53 37 66 -10 13 -16 14 -27 4 -11 -9 -25 -1
-71 45 -68 67 -90 71 -138 23z"/>
<path d="M1798 5450 c-21 -13 -32 -63 -19 -88 23 -43 98 -45 120 -3 35 65 -36
128 -101 91z"/>
<path d="M180 4520 l0 -116 35 4 c29 3 35 8 35 27 0 48 15 47 240 -10 117 -31
215 -57 218 -59 2 -3 -16 -10 -39 -16 -24 -6 -124 -34 -222 -61 -98 -27 -183
-47 -188 -43 -5 3 -9 18 -9 33 0 25 -4 29 -35 33 l-35 4 0 -148 0 -148 33 0
c27 0 35 5 44 30 7 18 18 30 29 30 18 0 416 -108 422 -115 8 -8 -427 -107
-444 -101 -8 3 -14 19 -14 36 0 28 -3 30 -35 30 l-35 0 0 -160 0 -160 35 0
c28 0 37 5 44 23 5 13 15 28 22 34 11 8 544 153 565 153 3 0 3 41 2 92 l-3 92
-179 52 c-98 30 -180 55 -182 56 -1 2 80 28 182 57 l185 55 -3 90 -3 91 -278
77 c-153 42 -284 81 -292 88 -7 6 -16 21 -19 34 -4 18 -14 25 -41 28 l-35 4 0
-116z"/>
<path d="M7320 4125 c0 -179 3 -325 8 -326 4 0 64 -6 135 -13 117 -11 127 -10
127 5 0 9 3 30 6 47 6 29 5 30 -45 42 -101 24 -131 71 -131 205 l0 85 116 0
115 0 -3 -37 c-3 -39 -23 -56 -80 -68 -25 -5 -28 -10 -28 -44 l0 -38 98 -6
c53 -4 121 -7 150 -7 l52 0 0 39 c0 35 -3 39 -32 45 -57 11 -78 32 -78 77 l0
40 98 -3 97 -3 0 -100 c0 -120 -13 -148 -75 -165 -39 -11 -40 -12 -40 -55 l0
-45 105 0 105 0 0 325 0 325 -40 0 c-37 0 -40 -2 -40 -29 0 -16 -6 -34 -14
-40 -9 -8 -87 -11 -262 -9 l-249 3 -9 38 c-9 35 -12 37 -48 37 l-38 0 0 -325z"/>
<path d="M6534 3499 c-33 -17 -47 -55 -32 -87 30 -63 120 -50 126 18 2 19 -3
43 -10 52 -17 22 -57 30 -84 17z"/>
<path d="M1811 2877 c-63 -31 -41 -119 32 -125 27 -2 39 2 51 20 21 29 20 61
-1 86 -24 27 -53 34 -82 19z"/>
<path d="M2236 2699 c-43 -22 -87 -38 -97 -36 -38 10 -40 -18 -5 -52 35 -34
62 -34 51 -1 -5 16 6 25 54 50 34 17 61 26 61 21 0 -5 -11 -34 -25 -65 -21
-47 -29 -56 -44 -51 -39 12 -32 -18 15 -66 36 -37 51 -46 61 -38 9 8 10 17 3
29 -8 15 -2 20 43 38 29 11 61 23 71 28 16 6 14 -3 -14 -55 -26 -48 -38 -61
-51 -58 -10 3 -23 -1 -28 -7 -8 -9 3 -26 38 -60 47 -47 77 -54 68 -18 -2 10
16 57 41 106 l44 89 -29 29 -30 29 -58 -26 c-32 -14 -60 -23 -63 -20 -3 2 7
31 21 64 l25 59 -27 26 c-15 14 -31 26 -37 26 -5 -1 -44 -19 -88 -41z"/>
<path d="M5822 2718 c-7 -7 -12 -18 -12 -24 0 -7 -9 -15 -19 -19 -33 -10 -81
-73 -81 -105 0 -36 31 -70 63 -70 12 0 45 14 72 30 56 33 75 37 75 15 0 -26
-43 -57 -73 -52 -45 6 -55 -18 -22 -53 22 -23 32 -27 42 -19 7 6 13 18 13 25
0 7 13 20 29 29 65 33 89 97 51 135 -28 28 -64 25 -127 -11 -54 -31 -80 -30
-68 2 9 24 64 52 91 46 40 -7 49 24 16 57 -32 30 -34 30 -50 14z"/>
<path d="M5583 2480 c-18 -10 -39 -30 -48 -44 -19 -28 -23 -92 -7 -108 16 -16
32 0 32 32 0 64 32 90 80 65 16 -9 30 -19 30 -23 0 -4 -25 -32 -55 -62 -30
-30 -55 -57 -55 -61 0 -4 18 -16 41 -27 48 -24 87 -17 131 24 61 59 58 136 -8
194 -42 36 -93 40 -141 10z"/>
<path d="M2572 2420 c-42 -26 -42 -60 -1 -124 42 -67 25 -107 -21 -49 -15 20
-20 36 -16 56 8 38 -18 47 -50 17 -29 -28 -30 -40 -5 -47 11 -3 25 -18 31 -33
27 -66 89 -94 133 -60 37 29 35 70 -4 131 -30 47 -31 69 -5 69 23 0 49 -39 51
-76 4 -55 19 -63 55 -29 23 22 27 32 19 42 -6 7 -17 13 -23 13 -6 0 -20 16
-30 35 -34 62 -86 84 -134 55z"/>
<path d="M2082 2147 c-145 -145 -191 -197 -186 -210 3 -9 9 -17 13 -17 3 0 95
89 204 198 155 155 195 200 185 210 -7 7 -15 12 -18 12 -3 0 -92 -87 -198
-193z"/>
<path d="M5852 2328 c-9 -11 29 -54 187 -212 159 -158 200 -195 209 -184 9 11
-29 54 -187 212 -159 158 -200 195 -209 184z"/>
<path d="M3940 851 c-43 -14 -84 -38 -107 -63 -68 -73 -71 -221 -6 -298 47
-57 101 -76 330 -121 107 -20 147 -60 124 -121 -15 -41 -54 -60 -130 -66 -130
-9 -248 51 -271 139 -10 38 -12 39 -55 39 l-45 0 0 -137 0 -138 44 1 c30 1 50
8 65 23 26 26 27 26 96 -5 41 -19 80 -28 140 -31 205 -13 325 76 325 244 0 77
-11 108 -58 156 -45 46 -106 69 -253 97 -62 12 -128 28 -145 35 -64 26 -69 90
-11 125 38 23 136 27 200 8 52 -16 115 -75 123 -117 8 -40 16 -44 64 -36 l40
7 0 124 c0 92 -3 124 -12 125 -37 3 -74 -5 -81 -17 -11 -20 -48 -17 -104 7
-52 23 -225 36 -273 20z"/>
</g>
</svg>
